# xmcd
#
# Track frame offsets: 
#        150
#        28506
#        47261
#        65632
#        75774
#        94048
#        118664
#        144973
#        161303
#        180186
#        192854
#
# Disc length: 2640 seconds
#
# Revision: 0
# Processed by: cddbd v1.5.2PL0 Copyright (c) Steve Scherf et al.
# Submitted via: ExactAudioCopy v0.99pb5
#
DISCID=750a4e0b
DTITLE=Steven Payne - No Commercial Value
DYEAR=2008
DGENRE=Blues
TTITLE0=Pedestrian Jesus
TTITLE1=Not Afraid Anymore
TTITLE2=Animal Farm
TTITLE3=Little Miss-Understood
TTITLE4=Leigh Delamare
TTITLE5=She Walks In Dreams
TTITLE6=Detroit
TTITLE7=Funny Tasking Chicken
TTITLE8=When Rita Leaves
TTITLE9=Looking For The Sun
TTITLE10=Leigh Delamare
EXTD=
EXTT0=
EXTT1=
EXTT2=
EXTT3=
EXTT4=
EXTT5=
EXTT6=
EXTT7=
EXTT8=
EXTT9=
EXTT10=
PLAYORDER=
